<?xml version="1.0" encoding="utf-8"?>
<!-- Generator: Adobe Illustrator 24.3.0, SVG Export Plug-In . SVG Version: 6.00 Build 0)  -->
<svg version="1.1" id="Layer_1" xmlns="http://www.w3.org/2000/svg" xmlns:xlink="http://www.w3.org/1999/xlink" x="0px" y="0px"
	 viewBox="0 0 626 980" style="enable-background:new 0 0 626 980;" xml:space="preserve">
<style type="text/css">
	.st0{fill:#FBBE55;}
</style>
<g>
	<path class="st0" d="M325.2,968.8c-13.9,0-27.7,0-41.6,0c-1.9-0.3-3.9-0.8-5.8-0.9c-33.7-1.9-66.7-8.1-98.8-18.4
		C124.6,931.8,76.5,903,33.6,865.5c-10.9-9.5-21.2-19.7-32.1-29.8c37.4-51.7,74.4-102.8,112.4-155.4c1.3,2.1,2.1,3.8,3.3,5.1
		c7.2,7.2,14.4,14.6,21.9,21.5c29.2,26.6,61.6,48.1,99.7,59.6c24.1,7.2,48.7,11.3,73.7,6.8c39.4-7.2,65.8-31,80.7-67.6
		c9.5-23.3,11.6-47.9,11.6-72.8c0-148,0-296,0-443.9c0-1.8-0.2-3.5-0.3-5.9c-95,0-189.6,0-284.4,0c0-9.4,0-18.1,0-26.9
		c0-52.5,0.1-104.9,0.1-157.4c167,0,333.9,0,500.9,0c0,215.5,0,430.9,0,646.4c-0.3,2.4-0.7,4.9-0.8,7.3c-1,27.7-4.2,55.2-10.1,82.4
		c-9,41.7-23.7,81.1-49.4,115.4c-51.8,68.9-122.3,104.9-206.7,115.6C344.6,967,334.9,967.8,325.2,968.8z"/>
</g>
</svg>
